<?xml version="1.0" encoding="UTF-8" standalone="no"?>
<svg
   xmlns:dc="http://purl.org/dc/elements/1.1/"
   xmlns:cc="http://creativecommons.org/ns#"
   xmlns:rdf="http://www.w3.org/1999/02/22-rdf-syntax-ns#"
   xmlns:svg="http://www.w3.org/2000/svg"
   xmlns="http://www.w3.org/2000/svg"
   xmlns:sodipodi="http://sodipodi.sourceforge.net/DTD/sodipodi-0.dtd"
   xmlns:inkscape="http://www.inkscape.org/namespaces/inkscape"
   width="313.66553mm"
   height="75.744415mm"
   viewBox="0 0 313.66553 75.744415"
   version="1.1"
   id="svg8"
   inkscape:version="1.0.1 (0767f8302a, 2020-10-17)"
   sodipodi:docname="walmarti.inkscape.svg">
  <defs
     id="defs2" />
  <sodipodi:namedview
     id="base"
     pagecolor="#ffffff"
     bordercolor="#666666"
     borderopacity="1.0"
     inkscape:pageopacity="0.0"
     inkscape:pageshadow="2"
     inkscape:zoom="0.35"
     inkscape:cx="581.07553"
     inkscape:cy="290.03409"
     inkscape:document-units="mm"
     inkscape:current-layer="layer1"
     inkscape:document-rotation="0"
     showgrid="false"
     inkscape:window-width="1401"
     inkscape:window-height="1043"
     inkscape:window-x="0"
     inkscape:window-y="0"
     inkscape:window-maximized="0" />
  <metadata
     id="metadata5">
    <rdf:RDF>
      <cc:Work
         rdf:about="">
        <dc:format>image/svg+xml</dc:format>
        <dc:type
           rdf:resource="http://purl.org/dc/dcmitype/StillImage" />
        <dc:title></dc:title>
      </cc:Work>
    </rdf:RDF>
  </metadata>
  <g
     inkscape:label="Layer 1"
     inkscape:groupmode="layer"
     id="layer1"
     transform="translate(47.909568,-71.428479)">
    <g
       id="g59">
      <g
         transform="matrix(0.52581591,0,0,-0.52581591,-47.909568,317.41042)"
         id="g14">
        <path
           d="m 0,37.789 c 0,0 18.553,76.025 21.514,88.365 3.456,14.403 9.6831,19.704 27.637,16.129 L 60.736,95.148 C 63.6722,83.44 65.6416,75.093 67.529,63.183 h 0.33203 c 1.3262,12.027 3.2146,20.292 5.6309,32.006 0,0 4.7159,21.398 7.1309,32.637 2.4214,11.235 9.1601,18.316 26.746,14.461 l 27.604,-104.49 h -22.287 l -9.4238,45.176 c -2.5337,13.15 -4.8329,23.425 -6.6055,35.455 h -0.31445 c -1.611,-11.91 -3.66,-21.778 -6.236,-34.59 l -9.8125,-46.041 h -23.221 l -10.496,44.881 c -2.9736,13.638 -5.7548,24.651 -7.5234,36.273 h -0.32031 c -1.8112,-10.945 -4.2236,-24.786 -6.8359,-37.988 0,0 -6.2359,-32.101 -8.4238,-43.166 L 0.00217,37.8 Z m 212.46,0 v 104.49 h 21.219 V 120.091 37.784 H 212.46 Z m 298.85,0 v 77.084 c 0,10.628 2.0002,18.074 6.2793,22.623 3.7385,3.9785 9.8964,6.5547 17.275,6.5547 6.2735,0 12.446,-1.1898 15.355,-2.2734 l -0.27343,-16.582 c -2.1646,0.53275 -4.6548,0.95899 -8.0606,0.95899 -7.2281,0 -9.6523,-4.6294 -9.6523,-14.172 v -29.492 h 18.48 v -19.992 h -18.48 v -24.709 h -20.924 z M 165.04,62.012 c -13.187,0 -23.655,3.7026 -29.361,7 l 4.1758,14.299 c 5.2221,-3.2922 13.537,-6.0176 21.41,-6.0176 13.035,-0.0335 15.166,7.3705 15.166,12.119 v 1.123 c -28.403,-0.04263 -46.344,9.7858 -46.344,29.82 0,12.232 9.133,23.695 25.014,23.695 9.776,0 17.952,-3.8989 22.852,-10.146 h 0.48047 c 0,0 3.2448,13.567 21.121,8.3789 -0.93912,-5.6466 -1.2441,-11.667 -1.2441,-18.918 v -27.914 c 0,-17.791 -7.5963,-33.439 -33.27,-33.439 z m 126.93,0 c -13.278,0 -19.245,6.729 -22.863,12.438 h -0.31445 V 63.784 h -20.25 v 78.5 h 21.332 V 96.247 c 0,-2.1582 0.24663,-4.4404 1,-6.4258 1.7674,-4.6351 6.0798,-10.057 12.965,-10.057 8.6072,0 12.635,7.277 12.635,17.779 v 44.74 h 21.309 v -46.594 c 0,-2.0602 0.28243,-4.5417 0.88868,-6.3633 1.7519,-5.2724 6.4009,-9.5625 12.801,-9.5625 8.726,0 12.914,7.1504 12.914,19.508 v 43.012 h 21.324 v -46.234 c 0,-24.383 -12.381,-34.037 -26.357,-34.037 -6.1896,0 -11.075,1.552 -15.492,4.2637 -3.7128,2.2782 -7.0362,5.5151 -9.9414,9.7773 h -0.31445 c -3.38,-8.46 -11.31,-14.041 -21.64,-14.041 z m 117.14,0 c -13.184,0 -23.65,3.7026 -29.361,7 l 4.1816,14.299 c 5.217,-3.2922 13.537,-6.0176 21.406,-6.0176 13.026,-0.0335 15.162,7.3705 15.162,12.119 v 1.123 c -28.399,-0.04263 -46.342,9.7858 -46.342,29.82 0,12.232 9.1377,23.695 25.027,23.695 9.7682,0 17.947,-3.8989 22.838,-10.146 h 0.48243 c 0,0 3.2442,13.567 21.123,8.3789 -0.9405,-5.6466 -1.2422,-11.667 -1.2422,-18.918 v -27.914 c 0,-17.791 -7.5983,-33.439 -33.275,-33.439 z m 88.586,0 c -8.1686,0 -17.462,5.2728 -21.363,16.576 h -0.5957 V 63.783 h -19.203 v 78.5 h 21.891 v -40.197 c 0,-2.1685 0.13148,-4.0592 0.47461,-5.793 1.619,-8.4202 8.0595,-13.803 17.303,-13.803 2.5375,0 4.3536,0.27484 6.3184,0.55859 v -20.551 c -1.6475,-0.33288 -2.7743,-0.48633 -4.8242,-0.48633 z m -320.58,42.434 v 9.793 c 0,1.4486 -0.12609,2.9432 -0.52734,4.25 -1.6422,5.4389 -7.2766,10.035 -14.32,10.035 -5.8722,0 -10.537,-3.3327 -10.537,-10.383 0,-10.784 11.871,-13.765 25.385,-13.695 z m 244.07,0 v 9.793 c 0,1.4486 -0.12872,2.9432 -0.52734,4.25 -1.6422,5.4389 -7.2746,10.035 -14.318,10.035 -5.8735,0 -10.539,-3.3327 -10.539,-10.383 0,-10.784 11.871,-13.765 25.385,-13.695 z"
           transform="matrix(0.8,0,0,-0.8,0,467.81)"
           fill="#007dc6"
           id="path10" />
        <path
           d="m 665.44,0 c -6.8502,0 -12.295,3.8254 -12.295,8.4824 l 4.1602,47.107 c 0.45925,2.8381 3.9358,5.0273 8.1387,5.0273 4.2112,-0.0055 7.6756,-2.1928 8.1445,-5.0273 l 4.18,-47.107 c 0,-4.6566 -5.46,-8.482 -12.32,-8.482 z m -67.795,37.787 c -3.5563,0.08438 -7.5962,2.7769 -10.166,7.2324 -3.4368,5.9329 -2.8278,12.563 1.1934,14.889 l 42.871,19.965 c 2.6782,0.99612 6.3156,-0.90582 8.4219,-4.5371 3e-4,-5.03e-4 -2.9e-4,-0.0015 0,-0.002 2.1161,-3.6492 1.9523,-7.7523 -0.27539,-9.5723 l -38.72,-27.158 c -1.0056,-0.58244 -2.1368,-0.84453 -3.3223,-0.81641 z m 135.59,0 c -1.1852,-0.02813 -2.3147,0.23397 -3.3184,0.81641 l -38.725,27.158 c -2.2145,1.8199 -2.3787,5.9232 -0.27343,9.5723 l 0.002,0.002 c 2.1141,3.6313 5.7397,5.5332 8.418,4.5371 l 42.89,-19.964 c 4.0379,-2.326 4.6166,-8.9558 1.2031,-14.889 -2.5814,-4.4556 -6.628,-7.148 -10.184,-7.2324 z m -100.09,62.151 c -0.55461,-0.0075 -1.0923,0.07818 -1.5957,0.26758 l -42.871,19.941 c -4.0211,2.3362 -4.6301,8.9688 -1.1934,14.908 3.4264,5.9212 9.4659,8.7362 13.488,6.4141 l 38.723,-27.137 c 2.228,-1.8422 2.3924,-5.9442 0.27539,-9.5898 l 0.0176,0.008 c -1.7116,-2.9695 -4.4404,-4.7798 -6.8438,-4.8125 z m 64.609,0 c -2.4006,0.0327 -5.124,1.843 -6.8398,4.8125 l 0.0156,-0.008 c -2.1066,3.6456 -1.9435,7.7476 0.27148,9.5898 l 38.725,27.137 c 4.0146,2.3221 10.06,-0.49281 13.502,-6.4141 3.4135,-5.9394 2.8348,-12.572 -1.2031,-14.908 l -42.877,-19.941 c -0.50337,-0.1894 -1.0398,-0.27513 -1.5938,-0.26758 z m -32.32,19.523 c -4.1958,0.005 -7.6644,2.1849 -8.123,5.0156 l -4.1602,47.105 c 0,4.6648 5.4447,8.4824 12.295,8.4824 6.863,0 12.318,-3.8177 12.318,-8.4824 l -4.1699,-47.105 c -0.46891,-2.8307 -3.9333,-5.0102 -8.1445,-5.0156 h -0.0156 z"
           transform="matrix(0.8,0,0,-0.8,0,467.81)"
           fill="#ffc220"
           id="path12" />
      </g>
      <text
         xml:space="preserve"
         style="font-size:50.8px;line-height:1.25;font-family:Rancho;-inkscape-font-specification:Rancho;fill:#007dc6;fill-opacity:1;stroke-width:0.264583"
         x="185.00365"
         y="131.73091"
         id="text34"><tspan
           sodipodi:role="line"
           id="tspan32"
           x="185.00365"
           y="131.73091"
           style="font-style:normal;font-variant:normal;font-weight:normal;font-stretch:normal;font-size:50.8px;font-family:'Ubuntu Condensed';-inkscape-font-specification:'Ubuntu Condensed, ';fill:#007dc6;fill-opacity:1;stroke-width:0.264583">i</tspan></text>
    </g>
  </g>
</svg>
